<svg xmlns="http://www.w3.org/2000/svg" viewBox="0 0 53.96 52.7"><defs><style>.cls-1{fill:#287a3c;}.cls-1,.cls-2{fill-rule:evenodd;}.cls-2{fill:#00562d;}</style></defs><g id="Camada_2" data-name="Camada 2"><g id="Camada_1-2" data-name="Camada 1"><path class="cls-1" d="M27.23,37.08c.45-.66,3.73-5,5-5.4-.7,1.07-1.2,1.94-1.92,3.11a4.63,4.63,0,0,1-3.09,2.29ZM39.7,44.82a6.3,6.3,0,0,0-7.79-1.66,25.34,25.34,0,0,0-3.22-1.81c-2.91-1-1.79.77-1.79-2.91,2.75-.65,9.69.46,9.69-10.13,0-1.54-1.26-.88-2.26-.61-1.87.51-4.22-.37-6.85,2.55l-.61.73-.15.18-.16.18a25.57,25.57,0,0,0,.34-6.08,8.92,8.92,0,0,0,6.35-8.1c0-2.35-.81-6.27-3-7.76-1.19.88-.35.92-2.13,1.93-5,2.84-6.56,7.19-4.35,12.36C24.67,25.78,24.9,25,24.9,28l-.61-.75c-2.4-2.82-6.66-4.63-10.1-3,.42,1.57.4-.11,1,3.75a7.48,7.48,0,0,0,1.17,3.56c1.69,2.54,5.51,3.16,8.57,3.16v6.41c-2.42,0-3.39,1.15-5,2A6.37,6.37,0,0,0,13,44V48.9c5.08,0,21,.36,26.75-.13v-4ZM18.54,28.31c.67-.79-.29-.3,1.67.68,1.27.64,1.4.37,2.63,1.39a5.15,5.15,0,0,1,1.71,2.31c-1.84-.49-.34-.67-3-2s-2.56-2.15-3-2.36Zm7.69-4.06c.35-1.47.68-1.11,1.22-4.18.42-2.45.12-2.35,1.12-4.25.77.56.21.3,0,1.3C27.88,19.82,29,22.41,26.23,24.25Z"/><path class="cls-2" d="M15,2.68c-2,.16-4,2.22-5.55,3.32C4.82,9.48,0,17.71,0,24.38,0,36.59,2.32,36.06,3.29,39.73c11.46-6.19,4.23-1.93,4.23-13.34a18.24,18.24,0,0,1,7.4-14.84A7.63,7.63,0,0,1,18.33,9.7,3.49,3.49,0,0,0,19.62,12c.41-1.85,3.59-7.82,3.94-9.35A19.56,19.56,0,0,1,19,1.29C18.33,1,17.54.91,16.72.62A7.13,7.13,0,0,0,14.07,0,5.76,5.76,0,0,1,15,2.68Z"/><path class="cls-2" d="M15,41.74c.35-1.32,1-1.34,1.32-2.66-2.52,0-6.43,1-9.81,1,.35,1.5.65,3,1.06,4.61a33.46,33.46,0,0,1,.91,5.06c1.2-.32,1.38-1,1.62-2a3.22,3.22,0,0,1,1.52.81c9.49,6.59,23.74,5.09,31.67-3,1.41-1.45,4-4.24,4.41-6.16-.62-.33-.83-.49-1.44-.86l-5.08-2.82-3,4c-2.29,2.17-2.5,1.93-4.44,3.16a9.57,9.57,0,0,1-3.46,1.44,20.19,20.19,0,0,1-8.32.3A23.4,23.4,0,0,1,15,41.74Z"/><path class="cls-2" d="M25.5,1V8a18.19,18.19,0,0,1,13,5.44c3.53,3.59,6.17,9.69,5,14.94a6.14,6.14,0,0,1-2.29-.34c.11,1.44.32,1,1.11,2.19.53.83.88,1.48,1.44,2.2s.88,1.29,1.5,2.17c1.2,1.71.88,1.53,1.82,1.79.38-1.44,5.58-5.09,6.87-7H51.35C51.35,19,49,11.89,41.8,6.08,38,3.05,32.87.46,27.79.35,26.2.29,25.5-.32,25.5,1Z"/></g></g></svg>